<svg version="1.1" id="Layer_1" xmlns="http://www.w3.org/2000/svg" xmlns:xlink="http://www.w3.org/1999/xlink" x="0px" y="0px"
	 width="100%" viewBox="0 0 1080 600" enable-background="new 0 0 1080 600" xml:space="preserve">
<path fill="#000000" opacity="1.000000" stroke="none" 
	d="
M631.000000,601.000000 
	C420.666718,601.000000 210.833466,601.000000 1.000141,601.000000 
	C1.000094,401.000122 1.000094,201.000244 1.000047,1.000275 
	C360.999756,1.000183 720.999512,1.000183 1080.999512,1.000092 
	C1080.999634,200.999710 1080.999634,400.999420 1080.999756,600.999573 
	C931.166687,601.000000 781.333313,601.000000 631.000000,601.000000 
M252.477646,526.999878 
	C258.228729,528.988159 263.848480,531.599731 269.756226,532.844666 
	C285.712891,536.207275 301.706024,539.647156 317.854431,541.757568 
	C327.853485,543.064270 338.181335,542.388916 348.326965,541.893738 
	C359.095490,541.368164 369.872192,540.367981 380.558258,538.928833 
	C402.397919,535.987732 422.973816,528.652771 442.891846,519.519592 
	C463.759460,509.950989 482.572937,497.026550 499.557251,481.718414 
	C514.081299,468.627777 527.049866,454.032501 538.112061,437.734863 
	C551.952637,417.343811 562.312988,395.457397 569.637512,371.946442 
	C575.664673,352.600250 578.620117,332.761475 579.842224,312.708801 
	C580.953857,294.468781 579.187073,276.288605 576.075500,258.223663 
	C572.476624,237.329147 566.052063,217.414276 557.034973,198.273163 
	C547.603455,178.252167 535.567383,160.030151 521.010742,143.296143 
	C509.375000,129.919998 496.558014,117.867683 482.469879,107.321503 
	C466.618103,95.455070 449.319397,85.948608 430.921692,78.306358 
	C402.714783,66.589409 373.267151,61.257805 342.999603,60.164593 
	C332.702240,59.792664 322.305206,61.032597 312.009918,62.085552 
	C302.493347,63.058865 292.879730,64.055862 283.613068,66.299149 
	C263.787292,71.098602 244.706589,78.003616 226.585205,87.660744 
	C208.742218,97.169518 192.175949,108.331566 177.429214,122.129440 
	C171.073868,128.075867 165.025620,134.355759 158.946960,140.590546 
	C155.733429,143.886597 152.495224,147.213806 149.713150,150.865921 
	C136.790848,167.829391 125.548698,185.802460 117.095627,205.465790 
	C106.486366,230.144836 99.764229,255.909622 98.257187,282.619904 
	C97.034775,304.285553 97.465622,326.051575 101.860809,347.606232 
	C105.929428,367.559326 111.970810,386.754486 120.633133,405.126892 
	C128.436386,421.677277 138.190536,436.961426 149.574615,451.373688 
	C161.056854,465.910217 173.882904,479.007080 188.220825,490.545013 
	C207.407196,505.984558 228.815338,517.792847 252.477646,526.999878 
M733.027466,280.828430 
	C732.910217,281.796631 732.939270,282.810516 732.653564,283.726135 
	C729.212402,294.753754 729.232361,305.902557 731.562988,317.095062 
	C734.484070,331.122833 741.469666,342.627533 752.396362,352.056244 
	C762.371948,360.664154 773.878845,364.945404 786.703979,365.932190 
	C797.696472,366.777954 808.571960,365.785797 818.713379,360.965698 
	C833.602234,353.889191 844.083618,342.587097 849.842224,327.143677 
	C850.965332,324.131744 849.888123,321.756500 845.666016,321.926331 
	C838.847961,322.200592 831.991821,322.313629 825.187439,321.903656 
	C819.440613,321.557373 815.131165,322.505280 812.635925,328.496216 
	C811.745056,330.634979 809.018188,332.203827 806.840454,333.573517 
	C801.360413,337.020264 795.142578,337.556335 788.921753,336.945587 
	C775.611877,335.638794 765.391296,325.456512 763.301819,312.000000 
	C764.993652,312.000000 766.645996,312.000000 768.298279,312.000000 
	C794.781982,312.000000 821.266296,311.909210 847.748718,312.092651 
	C851.979858,312.121918 853.405090,310.872314 853.056824,306.699677 
	C852.509949,300.146088 852.823242,293.492432 851.905518,287.003723 
	C849.613098,270.796387 840.556946,258.507935 827.731567,249.054153 
	C813.327698,238.436768 796.795837,237.104462 779.767761,240.031723 
	C756.368591,244.054230 741.824341,258.592987 733.027466,280.828430 
M978.032715,266.551483 
	C975.871460,263.713104 973.921082,260.680328 971.513550,258.069031 
	C959.109192,244.615219 943.829285,238.622406 925.395935,238.825760 
	C905.159302,239.048996 888.664307,246.016052 876.381653,262.167694 
	C863.835876,278.665405 860.533997,297.200836 864.711060,317.334961 
	C867.526428,330.905487 874.330017,341.833069 884.536072,351.238617 
	C899.091309,364.652252 916.614014,367.667480 934.997681,365.709747 
	C950.108887,364.100494 963.015076,356.966644 972.957825,344.744629 
	C978.823242,337.534607 982.563599,329.550507 984.914795,320.784912 
	C985.735046,317.727020 984.605286,315.798126 980.770569,315.931122 
	C973.780396,316.173676 966.752075,316.351105 959.785217,315.881042 
	C954.844421,315.547668 952.427246,317.436737 950.541870,321.808258 
	C944.126892,336.682281 923.107178,340.016541 910.780334,332.149872 
	C896.638489,323.124908 891.569092,307.092010 896.708313,290.698639 
	C901.329102,275.958893 912.063660,268.993866 925.012939,268.322266 
	C936.039551,267.750336 945.669983,272.798309 951.446167,283.023834 
	C952.974426,285.729401 954.528015,287.198303 957.887390,287.081390 
	C965.376831,286.820801 972.881653,287.027496 980.379944,286.989685 
	C984.893982,286.966949 986.144165,285.437958 984.585327,281.190460 
	C982.825073,276.394073 980.604065,271.766815 978.032715,266.551483 
M676.000000,320.500000 
	C676.000000,291.749725 676.000000,262.999451 676.000000,233.999969 
	C690.171570,233.999969 703.804504,233.909012 717.434570,234.063354 
	C720.881897,234.102386 722.193359,233.077408 722.065918,229.515213 
	C721.833740,223.027466 721.782898,216.515503 722.080261,210.033081 
	C722.262817,206.053467 720.963928,204.882401 716.982117,204.915741 
	C695.663269,205.094269 674.342041,204.999985 653.021667,205.000000 
	C636.198547,205.000000 619.375366,205.017197 602.552368,204.981476 
	C600.033569,204.976120 597.893860,204.955338 597.959717,208.496231 
	C598.095947,215.822586 597.839600,223.160278 598.159119,230.475204 
	C598.212402,231.696655 600.261536,233.701996 601.547546,233.837845 
	C605.665771,234.272812 609.858765,233.999924 614.022888,233.999969 
	C623.948242,234.000061 633.873535,234.000000 644.000000,234.000000 
	C644.000000,236.391083 644.000000,238.202469 644.000000,240.013870 
	C644.000000,279.323364 644.050903,318.633026 643.921021,357.942047 
	C643.908081,361.864349 644.958008,363.243713 648.992249,363.084564 
	C656.476074,362.789276 663.984009,362.852417 671.473450,363.065094 
	C674.978882,363.164612 676.114502,361.980255 676.066162,358.476654 
	C675.895874,346.153137 676.000000,333.825867 676.000000,320.500000 
z"/>
<path fill="#FFFFFF" opacity="1.000000" stroke="none" 
	d="
M252.073822,526.981567 
	C228.815338,517.792847 207.407196,505.984558 188.220825,490.545013 
	C173.882904,479.007080 161.056854,465.910217 149.574615,451.373688 
	C138.190536,436.961426 128.436386,421.677277 120.633133,405.126892 
	C111.970810,386.754486 105.929428,367.559326 101.860809,347.606232 
	C97.465622,326.051575 97.034775,304.285553 98.257187,282.619904 
	C99.764229,255.909622 106.486366,230.144836 117.095627,205.465790 
	C125.548698,185.802460 136.790848,167.829391 149.713150,150.865921 
	C152.495224,147.213806 155.733429,143.886597 158.946960,140.590546 
	C165.025620,134.355759 171.073868,128.075867 177.429214,122.129440 
	C192.175949,108.331566 208.742218,97.169518 226.585205,87.660744 
	C244.706589,78.003616 263.787292,71.098602 283.613068,66.299149 
	C292.879730,64.055862 302.493347,63.058865 312.009918,62.085552 
	C322.305206,61.032597 332.702240,59.792664 342.999603,60.164593 
	C373.267151,61.257805 402.714783,66.589409 430.921692,78.306358 
	C449.319397,85.948608 466.618103,95.455070 482.469879,107.321503 
	C496.558014,117.867683 509.375000,129.919998 521.010742,143.296143 
	C535.567383,160.030151 547.603455,178.252167 557.034973,198.273163 
	C566.052063,217.414276 572.476624,237.329147 576.075500,258.223663 
	C579.187073,276.288605 580.953857,294.468781 579.842224,312.708801 
	C578.620117,332.761475 575.664673,352.600250 569.637512,371.946442 
	C562.312988,395.457397 551.952637,417.343811 538.112061,437.734863 
	C527.049866,454.032501 514.081299,468.627777 499.557251,481.718414 
	C482.572937,497.026550 463.759460,509.950989 442.891846,519.519592 
	C422.973816,528.652771 402.397919,535.987732 380.558258,538.928833 
	C369.872192,540.367981 359.095490,541.368164 348.326965,541.893738 
	C338.181335,542.388916 327.853485,543.064270 317.854431,541.757568 
	C301.706024,539.647156 285.712891,536.207275 269.756226,532.844666 
	C263.848480,531.599731 258.228729,528.988159 252.073822,526.981567 
M288.913513,266.403534 
	C289.275665,268.282043 289.948608,270.159760 289.953278,272.039154 
	C290.021332,299.352722 289.999939,326.666504 289.999939,353.980255 
	C289.999939,355.579010 289.999939,357.177765 289.999939,358.720581 
	C297.967224,358.720581 305.370392,358.720581 313.000000,358.720581 
	C313.000000,356.805328 313.000000,355.161743 313.000000,353.518127 
	C313.000000,326.037842 313.069733,298.557159 312.921051,271.077667 
	C312.899994,267.182465 313.917847,265.831390 317.970032,265.911621 
	C330.289703,266.155487 342.619873,266.142456 354.940247,265.917084 
	C358.868286,265.845276 360.131958,266.965240 360.086731,270.988281 
	C359.886475,288.806580 359.776886,306.632355 360.092377,324.447327 
	C360.254700,333.612183 362.685974,342.466034 369.034149,349.375854 
	C378.247162,359.403992 390.441101,359.575714 402.704773,358.790924 
	C402.704773,352.614380 402.704773,346.860596 402.704773,341.112610 
	C387.518982,341.523407 382.891663,334.777283 382.977997,320.857361 
	C383.074036,305.369049 382.988159,289.879700 383.004425,274.390808 
	C383.014252,265.039337 382.015503,266.036926 391.150055,266.002228 
	C394.734070,265.988617 398.318146,266.000000 401.661133,266.000000 
	C401.661133,259.244080 401.661133,253.169754 401.661133,247.309845 
	C357.604889,247.309845 313.888000,247.309845 270.309448,247.309845 
	C270.309448,253.695648 270.309448,259.767944 270.309448,266.028931 
	C276.430695,266.028931 282.244202,266.028931 288.913513,266.403534 
z"/>
<path fill="#FFFFFF" opacity="1.000000" stroke="none" 
	d="
M733.211365,280.455627 
	C741.824341,258.592987 756.368591,244.054230 779.767761,240.031723 
	C796.795837,237.104462 813.327698,238.436768 827.731567,249.054153 
	C840.556946,258.507935 849.613098,270.796387 851.905518,287.003723 
	C852.823242,293.492432 852.509949,300.146088 853.056824,306.699677 
	C853.405090,310.872314 851.979858,312.121918 847.748718,312.092651 
	C821.266296,311.909210 794.781982,312.000000 768.298279,312.000000 
	C766.645996,312.000000 764.993652,312.000000 763.301819,312.000000 
	C765.391296,325.456512 775.611877,335.638794 788.921753,336.945587 
	C795.142578,337.556335 801.360413,337.020264 806.840454,333.573517 
	C809.018188,332.203827 811.745056,330.634979 812.635925,328.496216 
	C815.131165,322.505280 819.440613,321.557373 825.187439,321.903656 
	C831.991821,322.313629 838.847961,322.200592 845.666016,321.926331 
	C849.888123,321.756500 850.965332,324.131744 849.842224,327.143677 
	C844.083618,342.587097 833.602234,353.889191 818.713379,360.965698 
	C808.571960,365.785797 797.696472,366.777954 786.703979,365.932190 
	C773.878845,364.945404 762.371948,360.664154 752.396362,352.056244 
	C741.469666,342.627533 734.484070,331.122833 731.562988,317.095062 
	C729.232361,305.902557 729.212402,294.753754 732.653564,283.726135 
	C732.939270,282.810516 732.910217,281.796631 733.211365,280.455627 
M804.494873,286.000000 
	C809.281982,286.000000 814.069092,286.000000 818.843506,286.000000 
	C818.981323,276.133698 808.128479,268.912903 796.316589,267.185760 
	C784.056458,265.393066 769.131714,271.635498 765.094604,286.000000 
	C777.978882,286.000000 790.737549,286.000000 804.494873,286.000000 
z"/>
<path fill="#FFFFFF" opacity="1.000000" stroke="none" 
	d="
M978.308044,266.808746 
	C980.604065,271.766815 982.825073,276.394073 984.585327,281.190460 
	C986.144165,285.437958 984.893982,286.966949 980.379944,286.989685 
	C972.881653,287.027496 965.376831,286.820801 957.887390,287.081390 
	C954.528015,287.198303 952.974426,285.729401 951.446167,283.023834 
	C945.669983,272.798309 936.039551,267.750336 925.012939,268.322266 
	C912.063660,268.993866 901.329102,275.958893 896.708313,290.698639 
	C891.569092,307.092010 896.638489,323.124908 910.780334,332.149872 
	C923.107178,340.016541 944.126892,336.682281 950.541870,321.808258 
	C952.427246,317.436737 954.844421,315.547668 959.785217,315.881042 
	C966.752075,316.351105 973.780396,316.173676 980.770569,315.931122 
	C984.605286,315.798126 985.735046,317.727020 984.914795,320.784912 
	C982.563599,329.550507 978.823242,337.534607 972.957825,344.744629 
	C963.015076,356.966644 950.108887,364.100494 934.997681,365.709747 
	C916.614014,367.667480 899.091309,364.652252 884.536072,351.238617 
	C874.330017,341.833069 867.526428,330.905487 864.711060,317.334961 
	C860.533997,297.200836 863.835876,278.665405 876.381653,262.167694 
	C888.664307,246.016052 905.159302,239.048996 925.395935,238.825760 
	C943.829285,238.622406 959.109192,244.615219 971.513550,258.069031 
	C973.921082,260.680328 975.871460,263.713104 978.308044,266.808746 
z"/>
<path fill="#FFFFFF" opacity="1.000000" stroke="none" 
	d="
M676.000000,321.000000 
	C676.000000,333.825867 675.895874,346.153137 676.066162,358.476654 
	C676.114502,361.980255 674.978882,363.164612 671.473450,363.065094 
	C663.984009,362.852417 656.476074,362.789276 648.992249,363.084564 
	C644.958008,363.243713 643.908081,361.864349 643.921021,357.942047 
	C644.050903,318.633026 644.000000,279.323364 644.000000,240.013870 
	C644.000000,238.202469 644.000000,236.391083 644.000000,234.000000 
	C633.873535,234.000000 623.948242,234.000061 614.022888,233.999969 
	C609.858765,233.999924 605.665771,234.272812 601.547546,233.837845 
	C600.261536,233.701996 598.212402,231.696655 598.159119,230.475204 
	C597.839600,223.160278 598.095947,215.822586 597.959717,208.496231 
	C597.893860,204.955338 600.033569,204.976120 602.552368,204.981476 
	C619.375366,205.017197 636.198547,205.000000 653.021667,205.000000 
	C674.342041,204.999985 695.663269,205.094269 716.982117,204.915741 
	C720.963928,204.882401 722.262817,206.053467 722.080261,210.033081 
	C721.782898,216.515503 721.833740,223.027466 722.065918,229.515213 
	C722.193359,233.077408 720.881897,234.102386 717.434570,234.063354 
	C703.804504,233.909012 690.171570,233.999969 676.000000,233.999969 
	C676.000000,262.999451 676.000000,291.749725 676.000000,321.000000 
z"/>
<path fill="#000000" opacity="1.000000" stroke="none" 
	d="
M288.485596,266.216248 
	C282.244202,266.028931 276.430695,266.028931 270.309448,266.028931 
	C270.309448,259.767944 270.309448,253.695648 270.309448,247.309845 
	C313.888000,247.309845 357.604889,247.309845 401.661133,247.309845 
	C401.661133,253.169754 401.661133,259.244080 401.661133,266.000000 
	C398.318146,266.000000 394.734070,265.988617 391.150055,266.002228 
	C382.015503,266.036926 383.014252,265.039337 383.004425,274.390808 
	C382.988159,289.879700 383.074036,305.369049 382.977997,320.857361 
	C382.891663,334.777283 387.518982,341.523407 402.704773,341.112610 
	C402.704773,346.860596 402.704773,352.614380 402.704773,358.790924 
	C390.441101,359.575714 378.247162,359.403992 369.034149,349.375854 
	C362.685974,342.466034 360.254700,333.612183 360.092377,324.447327 
	C359.776886,306.632355 359.886475,288.806580 360.086731,270.988281 
	C360.131958,266.965240 358.868286,265.845276 354.940247,265.917084 
	C342.619873,266.142456 330.289703,266.155487 317.970032,265.911621 
	C313.917847,265.831390 312.899994,267.182465 312.921051,271.077667 
	C313.069733,298.557159 313.000000,326.037842 313.000000,353.518127 
	C313.000000,355.161743 313.000000,356.805328 313.000000,358.720581 
	C305.370392,358.720581 297.967224,358.720581 289.999939,358.720581 
	C289.999939,357.177765 289.999939,355.579010 289.999939,353.980255 
	C289.999939,326.666504 290.021332,299.352722 289.953278,272.039154 
	C289.948608,270.159760 289.275665,268.282043 288.485596,266.216248 
z"/>
<path fill="#000000" opacity="1.000000" stroke="none" 
	d="
M803.995544,286.000000 
	C790.737549,286.000000 777.978882,286.000000 765.094604,286.000000 
	C769.131714,271.635498 784.056458,265.393066 796.316589,267.185760 
	C808.128479,268.912903 818.981323,276.133698 818.843506,286.000000 
	C814.069092,286.000000 809.281982,286.000000 803.995544,286.000000 
z"/>
</svg>